Coordinates
version=1
nRows=14
nColumns=36
inDegrees=yes

Units are S.I. units (second, meters, Newtons, ...)
If the header above contains a line with 'inDegrees', this indicates whether rotational values are in degrees (yes) or radians (no).

endheader
time	pelvis_tilt	pelvis_list	pelvis_rotation	pelvis_tx	pelvis_ty	pelvis_tz	hip_flexion_r	hip_adduction_r	hip_rotation_r	knee_angle_r	knee_angle_r_beta	ankle_angle_r	subtalar_angle_r	mtp_angle_r	hip_flexion_l	hip_adduction_l	hip_rotation_l	knee_angle_l	knee_angle_l_beta	ankle_angle_l	subtalar_angle_l	mtp_angle_l	lumbar_extension	lumbar_bending	lumbar_rotation	arm_flex_r	arm_add_r	arm_rot_r	elbow_flex_r	pro_sup_r	arm_flex_l	arm_add_l	arm_rot_l	elbow_flex_l	pro_sup_l
      5.38333330	    -40.64967058	      0.22922450	     -5.38931758	      0.95611480	      0.75124837	     -0.17020704	     19.97946885	     -5.92050011	     11.95160098	     47.11354029	      0.82228640	    -22.78451341	      0.91509732	     -7.49999987	     81.26469544	      5.82425127	      0.82782400	     62.71479331	      1.09457963	     21.67013678	    -26.78782932	     -7.49999987	     -9.59686734	    -16.13392105	      9.71242670	     90.96018573	    -19.33271856	     40.67126276	     93.92543044	     93.75095660	     95.21070836	    -24.19186282	     50.60414572	    100.71597179	     81.03228557
      5.40000000	    -40.98709556	      0.62647819	     -5.26213613	      0.96189297	      0.73981995	     -0.16748426	     19.59823832	     -6.32757698	     11.82488628	     46.93730119	      0.81921045	    -22.38578700	      0.47896742	     -7.49999987	     82.00708549	      6.09842055	      0.63946126	     64.07108699	      1.11825142	     22.86759333	    -27.38865794	     -7.49999987	     -9.60103209	    -16.68201341	      9.33729933	     90.21319717	    -18.62669290	     39.72816685	     94.12540407	     96.52355076	     96.46386469	    -24.63069272	     51.75034845	    100.26145438	     82.06144786
      5.41666670	    -41.48486524	      0.78831719	     -5.27849565	      0.95832052	      0.73667684	     -0.17096236	     19.52505005	     -6.57740735	     11.30560819	     46.49243616	      0.81144609	    -19.37679892	     -1.16988309	     -7.49999987	     83.11688275	      6.31831534	      0.44538689	     65.07972698	      1.13585551	     23.39267509	    -27.95459236	     -7.49999987	     -9.62670613	    -16.73496067	      9.51304207	     90.41590490	    -18.58147274	     39.59979386	     94.24152376	     96.56194997	     96.68437640	    -24.53117276	     51.52754955	    100.33149166	     82.08788013
      5.43333330	    -41.52252772	      1.38928759	     -5.29986978	      0.96344957	      0.73550464	     -0.17306829	     18.33016201	     -7.64434193	     10.25961975	     45.09627387	      0.78707846	    -18.45220173	     -1.75136208	     -7.49999987	     83.54514293	      6.70799724	     -0.28022811	     65.98677843	      1.15168655	     24.01094649	    -28.30723306	     -7.49999987	     -9.75590339	    -17.32009827	      9.75821643	     90.25130051	    -18.56263599	     39.29824216	     93.95755106	     94.99827792	     95.87021678	    -23.97275273	     50.76113615	    100.35304080	     80.83007592
      5.45000000	    -41.55880945	      1.73935753	     -5.43025331	      0.96212262	      0.73062147	     -0.17207943	     17.79369492	     -8.45586883	      8.81880132	     44.40079516	      0.77494007	    -17.27320474	     -3.02061911	     -7.49999987	     84.01876920	      6.96440831	     -0.47377558	     66.82895499	      1.16638530	     24.78896926	    -28.45994530	     -7.49999987	     -9.72257460	    -17.40720584	     11.23690354	     89.99335412	    -19.42537462	     38.99936927	     94.19519673	     95.74443688	     92.09641503	    -22.28492456	     47.66188398	    100.54667605	     81.42254928
      5.46666670	    -42.11517993	      1.56188471	     -5.08332527	      0.95945160	      0.72580627	     -0.16967524	     18.40483660	     -8.36251952	      8.24070781	     44.97417744	      0.78494747	    -17.84353431	     -2.64028685	     -7.49999987	     85.43424735	      6.81684212	     -0.66400970	     67.92090699	      1.18544346	     25.12692939	    -27.42343494	     -7.49999987	    -10.26709761	    -17.19709087	     11.25983846	     90.57235478	    -19.57457544	     38.80386506	     94.94754287	     94.96253556	     92.28093782	    -21.94261316	     47.04577432	    100.79927249	     81.04799791
      5.48333330	    -42.40601437	      1.77490529	     -5.25006853	      0.95876319	      0.71606980	     -0.16860580	     18.70725386	     -9.24386381	      6.31023545	     45.56104327	      0.79519022	    -14.91513681	     -3.18319598	     -7.49999987	     86.84364917	      6.54206557	     -1.10301218	     69.43362870	      1.21184543	     25.91218995	    -27.03230793	     -7.49999987	    -10.60905166	    -17.75030453	     11.64645867	     91.60319301	    -19.78227103	     38.28194478	     95.40880990	     95.84108659	     94.87937535	    -21.03428846	     48.02878249	     99.28267546	     82.96227730
      5.50000000	    -43.12978564	      1.91055064	     -4.92804944	      0.95796890	      0.71421739	     -0.16762969	     18.83167625	     -9.56331970	      5.24273368	     44.75052874	      0.78104407	    -12.49491627	     -4.40162750	     -7.49999987	     88.28654790	      6.31721889	     -1.75425773	     70.47333936	      1.22999181	     26.69465943	    -26.07112260	     -7.49999987	    -10.75599859	    -17.86633816	     11.56347415	     93.34420759	    -19.59356053	     38.20331466	     95.01413784	     95.21833945	     96.35934623	    -20.61148414	     47.83151185	     98.96017470	     82.75421117
      5.51666670	    -43.75271901	      2.46356394	     -4.84034849	      0.95790223	      0.70784183	     -0.16728589	     18.42615998	    -10.07050149	      5.03594678	     43.43423145	      0.75807035	    -10.88021458	     -7.55436667	     -7.49999987	     89.48481908	      6.19972294	     -2.51187104	     71.33185923	      1.24497581	     27.53035169	    -25.38794998	     -7.49999987	    -11.02203897	    -18.48522164	     11.12339955	     95.45470871	    -19.25277604	     38.70086675	     94.46694937	     94.56519648	     99.60057401	    -20.70495567	     49.11263336	     97.62286400	     82.41066037
      5.53333330	    -44.61117973	      3.00758162	     -4.02444657	      0.95917316	      0.69763268	     -0.16791311	     18.37343790	    -10.59662848	      5.17133284	     43.50222186	      0.75925700	     -9.23145132	     -9.43878429	     -7.49999987	     91.15444114	      6.98355805	     -3.32117138	     72.59729658	      1.26706185	     28.32841960	    -25.27154355	     -7.49999987	    -10.78412246	    -19.08397782	     10.31123698	     96.37344247	    -19.33611636	     38.53657104	     94.63507498	     92.26337048	    101.36648545	    -20.79532444	     50.04787799	     97.12125569	     80.92215507
      5.55000000	    -44.81509208	      3.82578932	     -3.24953668	      0.96450158	      0.69377055	     -0.17091734	     16.64975958	    -11.72872619	      5.13909213	     41.72692499	      0.72827223	     -8.66799909	     -9.89337730	     -7.49999987	     91.62560147	      7.95133146	     -4.32849870	     73.36178276	      1.28040465	     29.37314823	    -24.74862862	     -7.49999987	    -10.36101320	    -19.78531237	     11.25085839	     96.12953744	    -21.28338054	     38.39432207	     95.00177401	     91.82917989	     98.18851722	    -19.07932852	     47.89020751	     97.83612599	     80.22370257
      5.56666670	    -45.40920798	      4.29617239	     -2.89119777	      0.95901718	      0.68786401	     -0.16778266	     16.55654658	    -12.00615503	      5.49311332	     41.05425262	      0.71653188	     -8.55256696	    -12.07308589	     -7.49999987	     92.94435511	      8.20462342	     -4.70263261	     74.25959921	      1.29607451	     29.93798359	    -24.02932467	     -7.49999987	     -9.87717954	    -20.49762562	     12.80923778	     96.32694435	    -23.88878989	     37.76064521	     95.97889196	     94.05615651	     95.69438663	    -16.42965182	     45.54794057	     98.22870766	     82.95226512
      5.58333330	    -45.60005832	      4.92101970	     -2.78266695	      0.96436834	      0.68513254	     -0.17063160	     16.02159236	    -12.69583389	      5.99885664	     40.33486211	      0.70397615	    -10.41800923	    -14.47733345	     -7.49999987	     93.30734663	      8.41855968	     -5.51478538	     74.60637527	      1.30212689	     29.88883297	    -24.36615645	     -7.49999987	     -9.38142461	    -20.82540293	     13.96621229	     95.83046387	    -25.40390732	     37.72887715	     95.94249316	     94.14937103	     92.54701990	    -15.37870984	     43.79558858	     99.05985193	     83.14758605
      5.60000000	    -46.41010139	      5.05617546	     -2.99870842	      0.96424365	      0.67953398	     -0.17054014	     16.62141687	    -12.53657348	      6.82338380	     40.21724241	      0.70192330	    -10.82918138	    -16.88061882	     -7.49999987	     94.33189345	      8.20361806	     -5.52382797	     75.38342180	      1.31568891	     30.63103006	    -23.84654470	     -7.49999987	     -9.27918244	    -20.97085241	     13.13078773	     96.34726301	    -24.85824092	     38.19369378	     96.42811956	     93.31861692	     94.77160849	    -16.05379374	     44.58637500	     98.23153607	     82.69185511
